<svg xmlns="http://www.w3.org/2000/svg" width="11" height="11" viewBox="0 0 11 11"><path opacity=".7" fill="#FFF" d="M10.5 7.98c-.458-.468-1.755-1.346-2.604-1.346-.197 0-.37.044-.51.134-.416.266-.746.473-.907.473-.09 0-.183-.077-.388-.256l-.034-.03c-.573-.498-.694-.626-.916-.857l-.056-.06-.11-.112c-.193-.2-.334-.344-.83-.906l-.02-.026c-.24-.268-.396-.444-.406-.572-.01-.125.1-.328.38-.706.337-.456.35-1.02.04-1.672-.248-.516-.65-1.01-1.007-1.443l-.03-.037C2.795.188 2.438 0 2.042 0c-.44 0-.807.237-1 .362-.017.01-.032.022-.048.03-.434.276-.75.654-.87 1.04-.176.578-.295 1.328.56 2.887C1.42 5.67 2.09 6.574 3.15 7.665c1 1.024 1.443 1.356 2.437 2.075C6.693 10.54 7.756 11 8.5 11c.69 0 1.234 0 2.01-.935.813-.98.475-1.58-.01-2.084z"/></svg>