<svg xmlns="http://www.w3.org/2000/svg" width="160" height="30" viewBox="0 0 160 30"><g fill="#FFF"><path d="M32.467.027H15.335C7.667.027 0 1.874 0 12.357v5.315C0 28.18 7.667 30 15.335 30h17.132c.168 0 .307-.144.307-.316v-4.68c0-.193-.152-.318-.307-.318H15.335c-7.668 0-7.668-5.856-7.668-7.01H28.63c.176 0 .31-.16.31-.32v-4.682c0-.198-.17-.315-.31-.315H7.666c0-1.24 0-7.015 7.668-7.015h17.132s.307-.18.307-.318V.347c0-.21-.166-.32-.307-.32zM110.99 0h-2.105C101.217 0 93.55 1.85 93.55 12.33v5.314c0 10.505 7.667 12.33 15.335 12.33h2.105c7.667 0 15.334-1.825 15.334-12.33v-4.73-.584C126.324 1.85 118.658 0 110.99 0zm7.668 17.646c0 1.154 0 7.013-7.667 7.013h-2.104c-7.668 0-7.668-5.86-7.668-7.014V12.33c0-1.234 0-7.014 7.668-7.014h2.105c7.668 0 7.668 5.78 7.668 7.015v5.316zM47.495.027H41.06c-.34 0-.616.284-.616.637v28.703c0 .35.275.633.616.633h6.435c.342 0 .617-.283.617-.633V.665c0-.353-.275-.638-.617-.638zM73.218.027H56.396c-.34 0-.617.284-.617.637v28.703c0 .35.276.633.616.633h16.822c7.67 0 15.337-1.822 15.337-12.326v-4.73-.586c0-10.484-7.668-12.33-15.337-12.33zm7.67 17.647c0 1.155 0 7.01-7.67 7.01h-9.77V5.345h9.77c7.67 0 7.67 5.775 7.67 7.013v5.317zM148.5 12.357h-5.528s-3.834-1.596-3.834-3.508c0-1.977 1.852-3.507 3.834-3.507h12.578c.34 0 .618-.285.618-.635V.665c0-.353-.276-.637-.618-.637h-12.578c-7.668 0-11.5 2.66-11.5 8.822 0 6.167 3.832 8.824 11.5 8.824h5.527c1.9 0 3.832 1.46 3.832 3.504 0 1.863-1.884 3.507-3.833 3.507h-16.414c-.34 0-.614.287-.614.637v4.045c0 .35.274.633.614.633H148.5c7.667 0 11.5-2.656 11.5-8.822 0-6.162-3.833-8.82-11.5-8.82z"/></g></svg>