<svg xmlns="http://www.w3.org/2000/svg" width="340" height="33.01" viewBox="0 0 340 33.01"><path fill="#231F20" d="M31.25.035H14.823C7.47.035.12 1.75.12 11.495v4.939c0 9.762 7.35 11.456 14.704 11.456H31.25c.16 0 .294-.134.294-.295v-4.35c0-.18-.147-.296-.295-.296H14.823c-7.353 0-7.353-5.443-7.353-6.517h20.1s.298-.148.298-.296v-4.352s-.163-.293-.3-.293H7.472c0-1.15 0-6.52 7.354-6.52H31.25c.19 0 .294-.165.294-.295V.327c0-.19-.16-.292-.295-.292zM106.535.01h-2.018c-7.353 0-14.703 1.718-14.703 11.46v4.938c0 9.762 7.35 11.458 14.703 11.458h2.018c7.352 0 14.703-1.696 14.703-11.458v-4.396-.543c0-9.742-7.35-11.46-14.703-11.46zm7.352 16.398c0 1.072 0 6.518-7.352 6.518h-2.018c-7.353 0-7.353-5.445-7.353-6.518v-4.94c0-1.147 0-6.52 7.353-6.52h2.018c7.352 0 7.352 5.372 7.352 6.52v4.94zM45.657.035h-6.17c-.326 0-.59.265-.59.592v26.675c0 .325.265.59.59.59h6.17c.327 0 .59-.265.59-.59V.627c.002-.327-.263-.592-.59-.592zM70.32.035H54.193c-.327 0-.592.265-.592.592v26.675c0 .325.266.59.592.59H70.32c7.353 0 14.705-1.695 14.705-11.457V12.04v-.545c0-9.744-7.352-11.46-14.704-11.46zm7.353 16.4c0 1.073 0 6.516-7.353 6.516h-9.37V4.977h9.37c7.353 0 7.353 5.368 7.353 6.52v4.94zM142.498 11.494h-5.3c-1.86 0-3.675-1.482-3.675-3.26 0-1.837 1.776-3.26 3.676-3.26h12.06c.326 0 .59-.264.59-.59V.628c0-.327-.264-.592-.59-.592H137.2c-7.353 0-11.027 2.47-11.027 8.2 0 5.73 3.674 8.2 11.026 8.2h5.298c1.824 0 3.676 1.357 3.676 3.256 0 1.73-1.806 3.26-3.676 3.26h-15.735c-.326 0-.59.267-.59.593v3.76c0 .324.264.588.59.588h15.735c7.353 0 11.028-2.468 11.028-8.198 0-5.727-3.675-8.198-11.028-8.198z"/><path fill="#1A1A1A" d="M158.962 29.41l10.6-27.545h2.584L161.508 29.41h-2.546z"/><path fill="#4384D1" d="M191.984 19.188l.304-3.952h-.19l-1.52 3.268-3.572 5.89h-1.786l-3.914-5.89-1.444-3.268h-.228l.494 3.914v8.74h-4.408v-19h5.13l4.37 7.144 1.064 2.394h.152l1.102-2.47 4.028-7.068h5.168v19h-4.75v-8.702zM216.064 26.257c-.76.608-1.793 1.12-3.097 1.54-1.305.417-2.692.626-4.16.626-3.066 0-5.31-.893-6.727-2.68-1.42-1.785-2.128-4.236-2.128-7.352 0-3.343.798-5.85 2.394-7.523s3.838-2.508 6.726-2.508c.962 0 1.9.126 2.812.38.912.252 1.723.67 2.432 1.253.71.583 1.28 1.368 1.71 2.356.43.987.646 2.216.646 3.685 0 .532-.032 1.102-.095 1.71s-.158 1.242-.284 1.9H204.93c.076 1.596.486 2.8 1.23 3.61.746.812 1.95 1.216 3.618 1.216 1.035 0 1.963-.157 2.783-.474.822-.316 1.446-.64 1.876-.97l1.628 3.23zm-7.052-13.946c-1.285 0-2.236.388-2.854 1.16-.618.773-.99 1.805-1.114 3.097h7.03c.1-1.368-.107-2.42-.624-3.154-.516-.735-1.33-1.102-2.438-1.102zM239.304 32.223h-3.61l-.57-4.332h-12.768l-.57 4.333h-3.61V23.52h2.242c.203-.277.462-.752.78-1.424.315-.67.632-1.59.95-2.755.315-1.164.588-2.608.816-4.33s.342-3.763.342-6.12h13.224v14.63h2.774v8.703zm-7.714-8.474V13.07h-3.99c-.05.913-.14 1.882-.266 2.908-.127 1.026-.285 2.02-.475 2.983-.19.964-.413 1.863-.666 2.7-.253.835-.532 1.532-.836 2.09h6.232zM253.383 19.227l.19-2.698h-.114l-1.635 2.773-6.764 8.588h-3.115v-19h4.94v9.045l-.228 2.584h.152l1.557-2.7 6.84-8.93h3.116v19h-4.94v-8.663zM280.952 32.223h-3.61l-.57-4.332h-14.364v-19h4.94v14.63h5.89V8.89h4.94v14.63h2.774v8.703zM295.03 19.227l.19-2.698h-.114l-1.634 2.773-6.764 8.588h-3.116v-19h4.94v9.045l-.228 2.584h.152l1.558-2.7 6.84-8.93h3.116v19h-4.94v-8.663zM315.19 20.405h-6.195v7.486h-4.94v-19h4.94v7.145h6.194V8.89h4.94v19h-4.94v-7.485zM324.202 9.993c1.013-.456 2.217-.817 3.61-1.083 1.393-.266 2.85-.4 4.37-.4 1.317 0 2.42.16 3.306.476s1.59.766 2.11 1.35c.518.582.886 1.28 1.1 2.09.216.81.324 1.722.324 2.735 0 1.116-.038 2.237-.114 3.364-.076 1.128-.12 2.236-.133 3.325-.013 1.088.02 2.146.095 3.172.076 1.026.266 1.995.57 2.907h-4.028l-.798-2.623h-.19c-.507.786-1.21 1.463-2.11 2.033-.898.57-2.058.855-3.476.855-.887 0-1.685-.133-2.394-.4-.71-.265-1.317-.645-1.824-1.14-.507-.493-.9-1.076-1.178-1.747-.28-.67-.418-1.425-.418-2.26 0-1.166.26-2.148.78-2.946.518-.798 1.266-1.444 2.24-1.938.976-.494 2.142-.836 3.497-1.026 1.356-.19 2.87-.247 4.542-.17.177-1.42.076-2.44-.304-3.06-.38-.62-1.23-.93-2.546-.93-.988 0-2.033.1-3.135.303-1.102.204-2.008.47-2.717.8l-1.178-3.687zm6.27 14.135c.988 0 1.773-.22 2.356-.665.582-.443 1.013-.918 1.292-1.425v-2.47c-.786-.076-1.54-.09-2.26-.038s-1.363.165-1.92.342c-.558.178-1 .43-1.33.76-.33.33-.494.748-.494 1.254 0 .71.21 1.26.627 1.653.42.393.994.588 1.73.588z"/></svg>